<?xml version="1.0" standalone="no"?><svg xmlns="http://www.w3.org/2000/svg" viewBox="0 0 1440 320"><path fill="#00cba9" fill-opacity="1" d="M0,192L12,192C24,192,48,192,72,202.7C96,213,120,235,144,250.7C168,267,192,277,216,277.3C240,277,264,267,288,240C312,213,336,171,360,170.7C384,171,408,213,432,208C456,203,480,149,504,133.3C528,117,552,139,576,122.7C600,107,624,53,648,53.3C672,53,696,107,720,154.7C744,203,768,245,792,224C816,203,840,117,864,117.3C888,117,912,203,936,250.7C960,299,984,309,1008,293.3C1032,277,1056,235,1080,197.3C1104,160,1128,128,1152,149.3C1176,171,1200,245,1224,261.3C1248,277,1272,235,1296,229.3C1320,224,1344,256,1368,256C1392,256,1416,224,1428,208L1440,192L1440,0L1428,0C1416,0,1392,0,1368,0C1344,0,1320,0,1296,0C1272,0,1248,0,1224,0C1200,0,1176,0,1152,0C1128,0,1104,0,1080,0C1056,0,1032,0,1008,0C984,0,960,0,936,0C912,0,888,0,864,0C840,0,816,0,792,0C768,0,744,0,720,0C696,0,672,0,648,0C624,0,600,0,576,0C552,0,528,0,504,0C480,0,456,0,432,0C408,0,384,0,360,0C336,0,312,0,288,0C264,0,240,0,216,0C192,0,168,0,144,0C120,0,96,0,72,0C48,0,24,0,12,0L0,0Z"></path></svg>